<mxfile host="app.diagrams.net" modified="2024-03-25T12:39:31.147Z" agent="Mozilla/5.0 (Macintosh; Intel Mac OS X 10_15_7) AppleWebKit/537.36 (KHTML, like Gecko) Chrome/123.0.0.0 Safari/537.36" version="24.1.0" etag="3Gut-nlG90xmaJoKww6I" type="github">
  <diagram name="페이지-1" id="fjmJSEoe6K8YgtZuUY9N">
    <mxGraphModel>
      <root>
        <mxCell id="0" />
        <mxCell id="1" parent="0" />
      </root>
    </mxGraphModel>
  </diagram>
</mxfile>
